<svg width="25" height="28" viewBox="0 0 25 28" fill="none" xmlns="http://www.w3.org/2000/svg">
<path d="M10 20C9.45 20 8.97917 19.8042 8.5875 19.4125C8.19583 19.0208 8 18.55 8 18V6C8 5.45 8.19583 4.97917 8.5875 4.5875C8.97917 4.19583 9.45 4 10 4H19C19.55 4 20.0208 4.19583 20.4125 4.5875C20.8042 4.97917 21 5.45 21 6V18C21 18.55 20.8042 19.0208 20.4125 19.4125C20.0208 19.8042 19.55 20 19 20H10ZM10 18H19V6H10V18ZM6 24C5.45 24 4.97917 23.8042 4.5875 23.4125C4.19583 23.0208 4 22.55 4 22V8H6V22H17V24H6ZM10 18V6V18Z" fill="#BEC8D2"/>
</svg>
