<svg width="20" height="20" viewBox="0 0 20 20" fill="none" xmlns="http://www.w3.org/2000/svg">
<path d="M10 0C4.47833 0 0 4.4775 0 10C0 14.4183 2.865 18.1667 6.83917 19.4892C7.33833 19.5817 7.5 19.2717 7.5 19.0083V17.1467C4.71833 17.7517 4.1325 15.9683 4.1325 15.9683C3.6775 14.8125 3.02167 14.505 3.02167 14.505C2.11417 13.8842 3.09083 13.8975 3.09083 13.8975C4.095 13.9675 4.62333 14.9283 4.62333 14.9283C5.515 16.4567 6.9625 16.015 7.53333 15.7592C7.6225 15.1133 7.88167 14.6717 8.16833 14.4225C5.9475 14.1683 3.6125 13.3108 3.6125 9.48C3.6125 8.3875 4.00333 7.49583 4.6425 6.79583C4.53917 6.54333 4.19667 5.52583 4.74 4.14917C4.74 4.14917 5.58 3.88083 7.49083 5.17417C8.28833 4.9525 9.14333 4.84167 9.99333 4.8375C10.8433 4.84167 11.6992 4.9525 12.4983 5.17417C14.4075 3.88083 15.2458 4.14917 15.2458 4.14917C15.79 5.52667 15.4475 6.54417 15.3442 6.79583C15.9858 7.49583 16.3733 8.38833 16.3733 9.48C16.3733 13.3208 14.0342 14.1667 11.8075 14.4142C12.1658 14.7242 12.4933 15.3325 12.4933 16.2658V19.01C12.4933 19.2758 12.6533 19.5883 13.1608 19.49C17.1317 18.1658 19.9933 14.4183 19.9933 10.0017C19.9933 4.47917 15.5158 0.00166667 9.99333 0.00166667L10 0Z" fill="#DAE2F8"/>
</svg>
