<svg width="20" height="20" viewBox="0 0 20 20" fill="none" xmlns="http://www.w3.org/2000/svg">
<g clip-path="url(#clip0_52_127)">
<path d="M10.4009 9.10013V11.8335H16.9342C16.7342 13.3668 15.5676 16.2168 10.4009 16.2168C5.91758 16.2168 2.26758 12.5168 2.26758 8.0168C2.26758 3.5168 5.91758 -0.183203 10.4009 -0.183203C12.9342 -0.183203 14.6509 0.90013 15.6176 1.85013L17.7676 -0.216537C16.3842 -1.49987 14.6009 -2.2832 12.5176 -2.2832C7.91758 -2.2832 4.18424 1.45013 4.18424 6.05013C4.18424 10.6501 7.91758 14.3835 12.5176 14.3835C17.3176 14.3835 20.5176 11.0001 20.5176 6.23346C20.5176 5.68346 20.4509 5.2668 20.3676 4.85013H12.5176L10.4009 9.10013Z" fill="#DAE2F8"/>
</g>
<defs>
<clipPath id="clip0_52_127">
<rect width="20" height="20" fill="white"/>
</clipPath>
</defs>
</svg>
