<svg width="18" height="18" viewBox="0 0 18 18" fill="none" xmlns="http://www.w3.org/2000/svg">
<path d="M10.875 15.8333H15.875V15.1458C15.5278 14.8264 15.1389 14.5833 14.7083 14.4167C14.2778 14.25 13.8333 14.1667 13.375 14.1667C12.9167 14.1667 12.4722 14.25 12.0417 14.4167C11.6111 14.5833 11.2222 14.8264 10.875 15.1458V15.8333ZM13.375 13.3333C13.7222 13.3333 14.0174 13.2118 14.2604 12.9688C14.5035 12.7257 14.625 12.4306 14.625 12.0833C14.625 11.7361 14.5035 11.441 14.2604 11.1979C14.0174 10.9549 13.7222 10.8333 13.375 10.8333C13.0278 10.8333 12.7326 10.9549 12.4896 11.1979C12.2465 11.441 12.125 11.7361 12.125 12.0833C12.125 12.4306 12.2465 12.7257 12.4896 12.9688C12.7326 13.2118 13.0278 13.3333 13.375 13.3333ZM8.41667 5.41667C7.61111 5.41667 6.92361 5.70139 6.35417 6.27083C5.78472 6.84028 5.5 7.52778 5.5 8.33333C5.5 9 5.6875 9.58333 6.0625 10.0833C6.4375 10.5833 6.93056 10.9306 7.54167 11.125C7.54167 10.8056 7.54514 10.5 7.55208 10.2083C7.55903 9.91667 7.61806 9.65278 7.72917 9.41667C7.53472 9.30556 7.39236 9.15278 7.30208 8.95833C7.21181 8.76389 7.16667 8.55556 7.16667 8.33333C7.16667 7.98611 7.28819 7.69097 7.53125 7.44792C7.77431 7.20486 8.06944 7.08333 8.41667 7.08333C8.625 7.08333 8.82292 7.13542 9.01042 7.23958C9.19792 7.34375 9.35417 7.48611 9.47917 7.66667C9.63194 7.59722 9.79167 7.54861 9.95833 7.52083C10.125 7.49306 10.2917 7.47917 10.4583 7.47917H11.2083C11.0278 6.88194 10.684 6.38889 10.1771 6C9.67014 5.61111 9.08333 5.41667 8.41667 5.41667ZM6.08333 16.6667L5.75 14C5.56944 13.9306 5.39931 13.8472 5.23958 13.75C5.07986 13.6528 4.92361 13.5486 4.77083 13.4375L2.29167 14.4792L0 10.5208L2.14583 8.89583C2.13194 8.79861 2.125 8.70486 2.125 8.61458C2.125 8.52431 2.125 8.43056 2.125 8.33333C2.125 8.23611 2.125 8.14236 2.125 8.05208C2.125 7.96181 2.13194 7.86806 2.14583 7.77083L0 6.14583L2.29167 2.1875L4.77083 3.22917C4.92361 3.11806 5.08333 3.01389 5.25 2.91667C5.41667 2.81944 5.58333 2.73611 5.75 2.66667L6.08333 0H10.6667L11 2.66667C11.1806 2.73611 11.3507 2.81944 11.5104 2.91667C11.6701 3.01389 11.8264 3.11806 11.9792 3.22917L14.4583 2.1875L16.75 6.14583L14.9792 7.5H12.875C12.8611 7.43056 12.8472 7.35764 12.8333 7.28125C12.8194 7.20486 12.7986 7.13194 12.7708 7.0625L14.5625 5.70833L13.75 4.29167L11.6875 5.16667C11.3819 4.84722 11.0451 4.57986 10.6771 4.36458C10.309 4.14931 9.90972 3.98611 9.47917 3.875L9.20833 1.66667H7.5625L7.27083 3.875C6.84028 3.98611 6.44097 4.14931 6.07292 4.36458C5.70486 4.57986 5.36806 4.84028 5.0625 5.14583L3 4.29167L2.1875 5.70833L3.97917 7.04167C3.90972 7.25 3.86111 7.45833 3.83333 7.66667C3.80556 7.875 3.79167 8.09722 3.79167 8.33333C3.79167 8.55556 3.80556 8.77083 3.83333 8.97917C3.86111 9.1875 3.90972 9.39583 3.97917 9.60417L2.1875 10.9583L3 12.375L5.0625 11.5C5.39583 11.8472 5.77083 12.1389 6.1875 12.375C6.60417 12.6111 7.05556 12.7639 7.54167 12.8333V16.6667H6.08333ZM10.4583 17.5C10.1111 17.5 9.81597 17.3785 9.57292 17.1354C9.32986 16.8924 9.20833 16.5972 9.20833 16.25V10.4167C9.20833 10.0694 9.32986 9.77431 9.57292 9.53125C9.81597 9.28819 10.1111 9.16667 10.4583 9.16667H16.2917C16.6389 9.16667 16.934 9.28819 17.1771 9.53125C17.4201 9.77431 17.5417 10.0694 17.5417 10.4167V16.25C17.5417 16.5972 17.4201 16.8924 17.1771 17.1354C16.934 17.3785 16.6389 17.5 16.2917 17.5H10.4583Z" fill="#ADC6FF"/>
</svg>
