<svg width="34" height="34" viewBox="0 0 34 34" fill="none" xmlns="http://www.w3.org/2000/svg">
<path d="M8.33333 33.3333V25H0V8.33333H8.33333V0H25V8.33333H33.3333V25H25V33.3333H8.33333ZM3.33333 15H11.6667C11.9444 15 12.2083 15.0694 12.4583 15.2083C12.7083 15.3472 12.9028 15.5278 13.0417 15.75L14.5 17.9167L16.75 11.1667C16.8611 10.8333 17.0625 10.5556 17.3542 10.3333C17.6458 10.1111 17.9722 10 18.3333 10C18.6111 10 18.875 10.0694 19.125 10.2083C19.375 10.3472 19.5694 10.5278 19.7083 10.75L22.5417 15H30V11.6667H21.6667V3.33333H11.6667V11.6667H3.33333V15ZM11.6667 30H21.6667V21.6667H30V18.3333H21.6667C21.3889 18.3333 21.125 18.2639 20.875 18.125C20.625 17.9861 20.4167 17.8056 20.25 17.5833L18.8333 15.4167L16.5833 22.1667C16.4722 22.5 16.2639 22.7778 15.9583 23C15.6528 23.2222 15.3194 23.3333 14.9583 23.3333C14.6806 23.3333 14.4167 23.2639 14.1667 23.125C13.9167 22.9861 13.7222 22.8056 13.5833 22.5833L10.75 18.3333H3.33333V21.6667H11.6667V30Z" fill="#FFD8B1"/>
</svg>
